<svg xmlns="http://www.w3.org/2000/svg" viewBox="0 0 210.71 210.71"><defs><style>.cls-1{fill:none;}.cls-2{fill:#448aff;}.cls-3{fill:#2979ff;}.cls-4,.cls-5{fill:#fff;}.cls-4{opacity:0.9;}</style></defs><g id="Calque_2" data-name="Calque 2"><g id="Calque_1-2" data-name="Calque 1"><rect class="cls-1" width="210.71" height="210.71"/><polygon class="cls-2" points="104.94 5.35 104.94 5.35 104.94 5.35 12.54 38.65 26.54 161.45 104.94 205.35 104.94 205.35 104.94 205.35 183.84 161.45 198.14 38.65 104.94 5.35"/><polygon class="cls-3" points="104.97 5.35 104.97 27.55 104.97 27.55 104.97 128.55 104.97 128.55 104.97 205.35 104.97 205.35 183.87 161.45 198.17 38.65 104.97 5.35"/><path class="cls-1" d="M127.35,86.14l9-18.1H105.1v18Z"/><path class="cls-1" d="M82.07,86l23,.07V68h-32Z"/><polygon class="cls-1" points="104.71 127.02 105.1 126.27 105.1 100.04 91.27 100.04 104.71 127.02"/><path class="cls-4" d="M107.4,154.5l21.14-36.61-19,0-4.39,8.36v29.38A2.32,2.32,0,0,0,107.4,154.5Z"/><path class="cls-4" d="M160.73,55H105.1V68h31.23l-9,18.1-22.25-.06v14h33.75l23.93-41.45A2.37,2.37,0,0,0,160.73,55Z"/><path class="cls-5" d="M82.07,86l-9-18h32V55H50a2.37,2.37,0,0,0-2,3.55l55.38,95.91a2.28,2.28,0,0,0,1.79,1.15V126.27l-.39.75L91.27,100H105.1v-14Z"/></g></g></svg>